<svg width="47" height="47" viewBox="0 0 47 47" fill="none" xmlns="http://www.w3.org/2000/svg">
<path d="M35.599 23.8762C35.4246 21.7649 34.066 19.8831 32.2852 18.7999C30.3299 17.6065 28.0258 17.1108 25.7584 16.918C23.5645 16.7344 21.3246 16.7344 19.1307 16.863C15.1742 17.0925 10.9057 18.9927 10.107 23.252C10.0887 23.3622 10.0428 23.4448 9.97852 23.4999C9.98769 25.9784 10.7955 28.5303 12.6039 30.2837C13.5311 31.1741 14.6602 31.835 15.9086 32.138C17.3223 32.4868 18.8369 32.4225 20.2781 32.4409C22.7016 32.4776 25.1617 32.4317 27.5301 31.9268C29.6965 31.4587 31.918 30.605 33.5152 28.9985C34.8646 27.6491 35.7551 25.8132 35.599 23.8762ZM16.5695 22.9399C16.5787 22.8665 16.5971 22.8114 16.6338 22.7563C16.5879 21.6456 18.1209 20.746 19.1857 21.2509C19.4428 21.3702 19.6355 21.563 19.7732 21.8016C20.0854 22.0678 20.2965 22.4534 20.3057 22.8848C20.324 23.5641 19.9018 24.0874 19.2867 24.3352C18.2035 24.7575 16.3492 24.4362 16.5695 22.9399ZM27.4475 29.6136C26.1898 30.4397 24.6568 30.9813 23.1422 30.963C22.3527 30.9446 21.6 30.8712 20.8473 30.605C20.4617 30.4581 20.0486 30.3112 19.709 30.0634C19.5713 29.9624 19.4428 29.8522 19.2959 29.7512C19.2684 29.7329 19.2408 29.7053 19.2133 29.687C18.8094 29.843 18.3229 29.2923 18.6625 28.8608C19.1031 28.3009 19.7732 28.8333 20.1771 29.1454C20.783 29.6044 21.6551 29.8798 22.4078 29.9257C24.0143 30.0266 25.5289 29.6594 26.8783 28.7782C27.4291 28.4202 27.9982 29.2555 27.4475 29.6136ZM28.0533 24.3995C26.9793 24.8309 25.125 24.5096 25.3453 23.0042C25.3545 22.9307 25.3729 22.8757 25.4096 22.8206C25.3637 21.7098 26.8967 20.8102 27.9615 21.3151C28.2186 21.4344 28.4113 21.6272 28.549 21.8659C28.8611 22.1321 29.0723 22.5177 29.0814 22.9491C29.0906 23.6284 28.6775 24.1516 28.0533 24.3995ZM37.5359 20.4981C37.2055 19.6719 36.5353 19.0936 35.6449 18.9559C35.1951 18.8825 34.7637 18.9284 34.3047 18.9559C34.2588 18.9559 34.2129 18.9651 34.167 18.9651C34.2037 19.0018 34.2404 19.0294 34.2771 19.0661C35.5439 20.3329 36.4619 21.9852 36.6088 23.7753C36.7373 23.6835 36.8566 23.5825 36.9668 23.4723C37.1963 23.2337 37.4441 22.9766 37.6186 22.6921C37.9766 22.1137 37.7746 21.0948 37.5359 20.4981ZM32.6432 10.428C31.9455 10.3637 31.1377 10.63 30.5318 11.043C30.5227 11.0614 30.5135 11.0798 30.5043 11.0981C30.1555 11.8325 30.5043 12.4567 31.2387 12.7413C31.8537 12.98 32.7992 12.9341 33.1756 12.2915C33.5795 11.6122 33.6254 10.5198 32.6432 10.428ZM8.60156 20.0942C8.34453 20.8011 8.10586 21.9852 8.84023 22.5085C8.93203 22.5727 9.05137 22.6462 9.1707 22.7288L9.17988 22.7196C9.57461 20.9846 10.5201 19.571 11.7869 18.4878C10.3641 18.0104 9.10645 18.6989 8.60156 20.0942Z" fill="#D6E5E5"/>
<path d="M43.5302 14.4397C42.0522 10.162 39.2433 6.44418 35.1491 4.37875C30.4767 2.01957 24.9597 1.79926 19.8741 2.60707C15.3026 3.33227 10.4833 4.98461 7.05928 8.21586C5.26006 9.9141 3.87393 11.9704 3.13955 14.3479C2.40518 16.7346 2.18486 19.2223 2.02881 21.7008C2.01963 21.8018 1.99209 21.8844 1.93701 21.9487C1.93701 21.967 1.94619 21.9946 1.94619 22.0221C1.94619 26.8782 1.84521 31.9637 4.70928 36.1497C7.03174 39.5553 10.6302 41.7952 14.5499 42.9151C22.628 45.2284 32.3769 43.7963 38.8669 38.2518C45.669 32.4502 46.2933 22.4352 43.5302 14.4397ZM38.4722 23.2155C38.105 23.7663 37.3706 24.7852 36.5903 24.877C36.2048 29.1455 32.2667 31.8352 28.3653 32.7715C26.0062 33.3315 23.5644 33.4692 21.1501 33.46C18.9929 33.4508 16.6612 33.5885 14.6142 32.7715C11.0249 31.3487 9.11553 27.6493 8.96865 23.9407C8.87686 23.8764 8.80342 23.7938 8.7667 23.6836C8.75752 23.6836 8.75752 23.6745 8.74834 23.6745C8.66572 23.6194 8.59229 23.5551 8.50967 23.5C8.36279 23.4082 8.21592 23.3164 8.0874 23.2063C7.70186 22.8942 7.4999 22.3526 7.39893 21.8844C7.20615 20.9573 7.47236 19.8924 7.94971 19.0846C8.87686 17.4873 10.52 17.0008 12.2366 17.5883C12.4202 17.6526 12.512 17.7811 12.5304 17.9188C13.7146 17.0926 15.1007 16.5143 16.5419 16.2022C18.387 15.7983 20.278 15.7891 22.1599 15.7799C22.2058 15.7799 22.2425 15.7799 22.2884 15.7799C22.1966 15.4495 22.3067 15.0639 22.4353 14.7243C22.6739 14.1092 22.8759 13.4758 23.0411 12.8332C23.4175 11.3829 23.6837 9.9141 23.9132 8.44535C23.9407 8.2434 24.1519 8.03227 24.3722 8.04145C26.3733 8.07817 28.2644 9.25317 29.9351 10.2538C30.8438 9.61117 32.1015 9.18891 33.1296 9.50102C34.5616 9.93246 34.7911 11.6582 34.0384 12.8241C33.3315 13.9164 31.8628 14.1459 30.7245 13.6319C29.7515 13.1913 29.2374 12.2916 29.3935 11.337C29.3108 11.2543 29.2558 11.1442 29.2558 11.034C28.5306 10.6026 27.8054 10.1895 27.0343 9.83149C26.3458 9.5102 25.6022 9.18891 24.8312 9.08793C24.6384 10.2629 24.4272 11.4379 24.1427 12.5946C23.9958 13.2004 23.8306 13.8063 23.6378 14.3938C23.5644 14.6233 23.4726 14.8436 23.3808 15.0731C23.344 15.1741 23.2981 15.275 23.2706 15.3852C23.2522 15.4586 23.2522 15.4954 23.2522 15.5045C23.344 15.5963 23.3899 15.6973 23.3899 15.7983C25.0056 15.8258 26.6304 15.9452 28.2185 16.2573C29.9351 16.5969 31.7159 17.1752 33.1755 18.185C33.2214 18.1575 33.2673 18.1299 33.3224 18.1116C33.7997 17.9647 34.3505 17.9188 34.8462 17.9096C36.2507 17.8913 37.5726 18.4237 38.261 19.7088C38.7843 20.6543 39.1056 22.2608 38.4722 23.2155Z" fill="#BCBCBC"/>
<path d="M44.7783 15.0731C43.4748 10.7679 41.0238 6.96747 37.251 4.45224C32.9916 1.60654 27.5847 0.927238 22.5818 1.29443C17.8359 1.64325 12.9799 2.93759 8.9408 5.5079C6.95799 6.7747 5.18631 8.43622 3.89198 10.4099C2.5242 12.4936 1.82655 14.8895 1.45018 17.3313C1.23905 18.7175 1.13807 20.1128 1.04627 21.5173C1.03709 21.5999 1.05545 21.6825 1.08299 21.7559C1.00037 21.8386 0.945296 21.9579 0.945296 22.1048C0.945296 24.8679 0.890218 27.6493 1.36756 30.3849C1.80819 32.8726 2.76287 35.2409 4.26834 37.2788C6.94881 40.9048 11.0154 43.0895 15.3207 44.1636C23.4814 46.2015 33.1476 44.5032 39.601 38.922C46.4031 33.047 47.2476 23.2431 44.7783 15.0731ZM38.8666 38.2519C32.3674 43.7964 22.6277 45.2284 14.5496 42.9151C10.6299 41.7952 7.03143 39.5554 4.70897 36.1497C1.85408 31.9638 1.94588 26.8782 1.94588 22.0222C1.94588 21.9946 1.94588 21.9763 1.9367 21.9487C1.9826 21.8845 2.01932 21.8018 2.0285 21.7009C2.18455 19.2224 2.40487 16.7347 3.13924 14.3479C3.86444 11.9704 5.25975 9.91415 7.05897 8.21591C10.483 4.98466 15.3023 3.33232 19.8738 2.60712C24.9685 1.79931 30.4764 2.01962 35.1488 4.3788C39.243 6.44423 42.0428 10.1712 43.5299 14.4397C46.293 22.4352 45.6687 32.4503 38.8666 38.2519Z" fill="black"/>
<path d="M38.2795 19.6996C37.591 18.4145 36.2691 17.882 34.8647 17.9004C34.369 17.9096 33.8182 17.9463 33.3408 18.1023C33.2858 18.1207 33.2399 18.1482 33.194 18.1758C31.7344 17.166 29.9535 16.5877 28.2369 16.248C26.6488 15.9359 25.024 15.8166 23.4084 15.7891C23.3992 15.6881 23.3625 15.5779 23.2707 15.4953C23.2707 15.4861 23.2707 15.4494 23.2891 15.376C23.3074 15.2658 23.3533 15.1648 23.3992 15.0639C23.491 14.8344 23.5736 14.6141 23.6563 14.3846C23.8582 13.7971 24.0143 13.1912 24.1611 12.5854C24.4457 11.4287 24.666 10.2537 24.8496 9.07871C25.6115 9.17969 26.3643 9.50098 27.0527 9.82227C27.8147 10.1803 28.549 10.5934 29.2742 11.0248C29.2742 11.135 29.3293 11.2451 29.4119 11.3277C29.265 12.2916 29.7699 13.182 30.743 13.6227C31.8813 14.1367 33.35 13.898 34.0568 12.8148C34.8096 11.649 34.5801 9.93242 33.1481 9.4918C32.1199 9.17969 30.8623 9.60195 29.9535 10.2445C28.2828 9.24395 26.3918 8.06895 24.3906 8.03223C24.1795 8.03223 23.9684 8.23418 23.9317 8.43613C23.7022 9.91406 23.4359 11.3828 23.0596 12.824C22.8943 13.4666 22.6924 14.0908 22.4537 14.715C22.316 15.0547 22.2151 15.4402 22.3068 15.7707C22.2609 15.7707 22.2242 15.7707 22.1783 15.7707C20.2965 15.7799 18.4055 15.7891 16.5604 16.193C15.1192 16.5143 13.733 17.0926 12.5488 17.9096C12.5305 17.7719 12.4479 17.6434 12.2551 17.5791C10.5385 16.9916 8.89533 17.4781 7.96818 19.0754C7.50001 19.8832 7.2338 20.948 7.4174 21.8752C7.51837 22.3434 7.72033 22.885 8.10587 23.1971C8.24357 23.3072 8.39044 23.399 8.52814 23.4908C8.61076 23.5459 8.69337 23.601 8.76681 23.6652C8.77599 23.6744 8.77599 23.6744 8.78517 23.6744C8.82189 23.7754 8.89533 23.8672 8.98712 23.9314C9.134 27.64 11.0434 31.3395 14.6326 32.7623C16.6705 33.5701 19.0022 33.4416 21.1686 33.4508C23.5828 33.46 26.0246 33.3223 28.3838 32.7623C32.2852 31.826 36.2141 29.1363 36.6088 24.8678C37.3891 24.776 38.1234 23.757 38.4906 23.2063C39.1057 22.2607 38.7844 20.6543 38.2795 19.6996ZM30.5135 11.1074C30.5227 11.0891 30.5318 11.0707 30.541 11.0523C31.1469 10.6301 31.9547 10.3639 32.6524 10.4373C33.6346 10.5291 33.5887 11.6215 33.1848 12.31C32.8084 12.9434 31.8629 12.9893 31.2479 12.7598C30.5135 12.466 30.1647 11.8326 30.5135 11.1074ZM9.17072 22.7289C9.05138 22.6463 8.93204 22.5729 8.84025 22.5086C8.10587 21.9854 8.35372 20.8012 8.60158 20.0943C9.10646 18.699 10.3641 18.0014 11.7961 18.4879C10.5293 19.5711 9.57462 20.9848 9.18908 22.7197C9.1799 22.7197 9.1799 22.7289 9.17072 22.7289ZM33.5244 28.9986C31.9363 30.6051 29.7149 31.4588 27.5393 31.927C25.1617 32.441 22.7016 32.4777 20.2873 32.441C18.8369 32.4227 17.3315 32.4777 15.9178 32.1381C14.6693 31.8352 13.5311 31.1742 12.6131 30.2838C10.8047 28.5305 9.99689 25.9785 9.98771 23.5C10.052 23.4449 10.0887 23.3623 10.1162 23.2521C10.9149 18.9836 15.1926 17.0834 19.1399 16.8631C21.3338 16.7346 23.5736 16.7346 25.7676 16.9182C28.0258 17.1109 30.3299 17.6066 32.2943 18.8C34.0752 19.8832 35.4338 21.765 35.6082 23.8764C35.7551 25.8133 34.8647 27.6492 33.5244 28.9986ZM37.6186 22.6922C37.4441 22.9768 37.1963 23.2338 36.9668 23.4725C36.8567 23.5826 36.7373 23.6836 36.6088 23.7754C36.4619 21.9854 35.544 20.333 34.2772 19.0662C34.2404 19.0295 34.2037 19.002 34.167 18.9652C34.2129 18.9652 34.2588 18.9561 34.3047 18.9561C34.7545 18.9285 35.1859 18.8918 35.6449 18.9561C36.5354 19.0938 37.2055 19.6721 37.5359 20.4982C37.7746 21.0949 37.9766 22.1139 37.6186 22.6922Z" fill="black"/>
<path d="M19.7729 21.7924C19.6352 21.5629 19.4333 21.3609 19.1854 21.2416C18.1206 20.7459 16.5875 21.6363 16.6334 22.7471C16.6059 22.793 16.5875 22.8572 16.5692 22.9306C16.3489 24.4361 18.2124 24.7574 19.2772 24.326C19.8922 24.0781 20.3145 23.5549 20.2961 22.8756C20.287 22.4441 20.085 22.0586 19.7729 21.7924ZM28.5487 21.8566C28.411 21.6271 28.209 21.4252 27.9612 21.3058C26.8963 20.8101 25.3633 21.7006 25.4092 22.8113C25.3817 22.8572 25.3633 22.9215 25.345 22.9949C25.1247 24.5004 26.9881 24.8217 28.053 24.3902C28.668 24.1424 29.0903 23.6191 29.0719 22.9398C29.0719 22.5084 28.8608 22.1228 28.5487 21.8566Z" fill="#EF4823"/>
<path d="M26.8873 28.7781C25.5287 29.6594 24.0233 30.0266 22.4168 29.9256C21.6641 29.8797 20.7828 29.6043 20.1862 29.1453C19.7822 28.8332 19.1121 28.3008 18.6715 28.8607C18.3319 29.2922 18.8184 29.8338 19.2223 29.6869C19.2498 29.7053 19.2774 29.7236 19.3049 29.7512C19.4426 29.8522 19.5803 29.9623 19.718 30.0633C20.0576 30.3111 20.4615 30.458 20.8563 30.6049C21.5998 30.8803 22.3526 30.9537 23.1512 30.9629C24.675 30.9904 26.1988 30.4397 27.4565 29.6135C27.9981 29.2555 27.4289 28.4201 26.8873 28.7781Z" fill="black"/>
</svg>
