<svg width="47" height="47" viewBox="0 0 47 47" fill="none" xmlns="http://www.w3.org/2000/svg">
<path d="M11.7129 41.0438C12.038 41.2857 12.3768 41.508 12.7342 41.7019C13.6918 42.2198 14.7532 42.5126 15.8146 42.7535C22.563 44.2868 30.5569 44.3231 36.054 39.5134C42.1748 34.1574 45.498 24.7358 43.195 16.8222C42.9493 15.9772 42.6448 15.1498 42.3226 14.3302C41.8712 13.1807 41.3836 12.0409 40.7697 10.9687C36.1284 2.86614 24.2129 0.217494 16.2366 4.18116C15.2163 4.68837 14.2411 5.28174 13.2688 5.87512C11.0578 7.22245 9.15237 8.9781 7.4163 10.8992C2.50187 16.3375 1.06347 24.1748 3.29989 30.8458C4.49055 34.3982 7.37616 37.1213 10.1168 39.676C10.6299 40.1538 11.1518 40.6267 11.7129 41.0438Z" fill="#4B7BB2"/>
<path d="M23.5498 44.1732C20.7621 44.1732 18.0538 43.7639 15.7067 43.2303C14.6512 42.9904 13.532 42.6898 12.5009 42.1316C12.1386 41.9348 11.7861 41.7067 11.4209 41.4364C10.8735 41.0291 10.3712 40.5816 9.78373 40.0333C7.11158 37.5452 4.08498 34.7242 2.83556 31.0005C0.492414 24.0151 2.14819 15.9957 7.05185 10.5702C9.05914 8.34842 11.0087 6.67601 13.013 5.45499C13.9853 4.86259 14.9821 4.25551 16.0171 3.74046C23.7995 -0.125286 36.2173 2.04063 41.1934 10.7239C41.8602 11.8871 42.3675 13.1091 42.7767 14.15C43.047 14.8374 43.3917 15.748 43.6639 16.6841C45.9248 24.4518 42.86 34.2072 36.3759 39.8795C32.6639 43.1294 28.006 44.1732 23.5498 44.1732ZM24.4497 2.86411C21.5856 2.86411 18.7989 3.45455 16.4538 4.61976C15.4551 5.11521 14.4769 5.71055 13.532 6.2863C11.6011 7.46326 9.72204 9.0779 7.77937 11.2272C3.10875 16.3952 1.53327 24.0347 3.76381 30.6901C4.93391 34.1788 7.86456 36.9097 10.4515 39.3185C11.0145 39.8443 11.4943 40.2722 12.0055 40.6511H12.0064C12.3325 40.894 12.6468 41.0976 12.968 41.2719C13.8943 41.7742 14.9371 42.0523 15.9241 42.2765C21.802 43.6121 30.0074 44.1516 35.7316 39.1452C41.9435 33.7098 44.8839 24.3793 42.7239 16.9592C42.4624 16.0603 42.1285 15.1781 41.8661 14.5093C41.4705 13.5018 40.98 12.3219 40.3445 11.2125C37.127 5.59696 30.6116 2.86411 24.4497 2.86411Z" fill="#010101"/>
<path d="M33.2474 16.4021C33.2112 16.3718 33.1789 16.3336 33.1495 16.2866C33.0399 16.1074 33.0154 15.891 32.9517 15.6912C32.7402 15.0235 32.0901 14.5691 31.4105 14.3978C30.731 14.2264 30.0172 14.2891 29.319 14.3537C28.7629 14.4046 28.1989 14.4575 27.6809 14.6661C27.1345 14.8854 26.6684 15.2653 26.2542 15.6834C25.1791 16.7693 24.3958 18.1793 24.2136 19.697C24.1882 19.9115 24.1461 20.168 23.9483 20.2551C23.8621 20.2933 23.7642 20.2884 23.6712 20.2806C21.2145 20.0985 18.9281 19.0126 16.7074 17.9443C16.019 17.6134 15.3218 17.2755 14.704 16.8202C14.4249 16.6136 13.4036 15.2741 13.2509 15.8959C12.824 17.6359 13.0825 19.5335 13.9588 21.0962C14.1674 21.4683 14.4259 21.8375 14.8058 22.0314C14.1664 21.9295 13.526 21.8277 12.8866 21.7259C12.8259 22.1234 12.7662 22.5405 12.9004 22.9195C12.9846 23.1554 13.1373 23.3601 13.2891 23.5598C13.7248 24.1356 14.1596 24.7104 14.5953 25.2861C14.9028 25.6925 15.2151 26.1037 15.6254 26.4063C16.0347 26.7088 16.5624 26.891 17.0589 26.7754C16.4205 26.9605 15.7429 27.0104 15.0839 26.9223C15.269 27.9005 15.8565 28.7954 16.6799 29.3545C17.5034 29.9136 18.5521 30.131 19.5293 29.944C19.1523 30.5188 18.5149 30.8625 17.8902 31.1494C16.9639 31.5753 16.0053 31.9297 15.0261 32.2108C14.5189 32.3557 14.0068 32.481 13.4898 32.5858C13.341 32.6161 12.7545 32.6308 12.6644 32.7346C12.5743 32.8394 12.5263 33.094 12.7623 33.1655C12.8377 33.189 12.9131 33.2213 12.9885 33.2457C16.0278 34.2396 19.4901 35.1962 22.695 34.5236C24.4438 34.1564 26.0515 33.3055 27.5732 32.3694C28.335 31.9014 29.087 31.4039 29.7254 30.7782C30.6918 29.8294 31.3596 28.6231 31.9696 27.4138C32.6247 26.1164 33.2327 24.7877 33.6734 23.3992C33.9025 22.6776 34.0866 21.9403 34.2041 21.1922C34.2511 20.8916 34.1933 20.495 34.2462 20.2287C34.3324 19.7969 34.8082 19.841 35.1039 19.5208C35.7541 18.8187 36.2868 18.0089 36.6745 17.1336C35.9059 17.3754 35.2792 18.0148 34.4792 18.1069C35.1265 17.3656 35.5808 16.457 35.7864 15.4935C35.6895 15.9488 34.5791 16.3238 34.2021 16.4051C33.9015 16.4707 33.4981 16.6175 33.2474 16.4021Z" fill="#D6E5E5"/>
<path d="M20.4383 35.2374C17.9228 35.2374 15.3222 34.5236 12.8361 33.7119L12.6197 33.6346C12.3768 33.5611 12.1977 33.3849 12.1301 33.1518C12.0576 32.9051 12.1213 32.6162 12.2917 32.4165C12.4757 32.202 12.7675 32.1648 13.2277 32.1227C13.2982 32.1159 13.3599 32.111 13.3962 32.1051C13.8965 32.0033 14.3959 31.8809 14.8904 31.7399C15.846 31.4667 16.786 31.1181 17.6849 30.7039C17.8563 30.6256 18.0276 30.5423 18.1911 30.4523C17.5557 30.3583 16.9407 30.1233 16.4042 29.758C15.47 29.1235 14.813 28.1228 14.6025 27.0115C14.5731 26.8577 14.6201 26.6981 14.7278 26.5836C14.7866 26.5219 14.8581 26.4788 14.9354 26.4533C14.6534 26.1733 14.4194 25.8619 14.204 25.578L12.8997 23.8517C12.745 23.648 12.5521 23.3944 12.4395 23.0801C12.2603 22.5739 12.3396 22.0608 12.4033 21.6476C12.4238 21.5193 12.4934 21.4038 12.5981 21.3264C12.7029 21.2501 12.8341 21.2187 12.9634 21.2383L13.5303 21.3294C12.5952 19.6589 12.3201 17.635 12.7754 15.7746C12.8674 15.3986 13.1357 15.2899 13.2473 15.2605C13.7585 15.1234 14.2304 15.6287 14.7327 16.1584C14.8434 16.2749 14.9364 16.3777 14.9961 16.4237C15.5875 16.8605 16.2945 17.1992 16.9192 17.4989C19.0763 18.5378 21.3078 19.6109 23.7048 19.7882C23.7087 19.7656 23.7176 19.7079 23.7264 19.6354C23.9105 18.0962 24.685 16.5687 25.905 15.3359C26.4543 14.7827 26.9596 14.4233 27.4971 14.2089C28.0886 13.9719 28.7182 13.9141 29.2733 13.8632C29.9695 13.8006 30.7587 13.7252 31.5293 13.92C32.4507 14.154 33.1753 14.7748 33.4182 15.5405C33.4407 15.613 33.4593 15.6864 33.4789 15.7608C33.5043 15.8656 33.5298 15.9655 33.5641 16.0242C33.6404 16.0311 33.8372 15.989 33.9459 15.9626L34.0967 15.9273C34.5736 15.8245 35.2228 15.5239 35.3177 15.3623C35.3755 15.097 35.636 14.9403 35.8935 15.001C36.1588 15.0578 36.3224 15.332 36.2656 15.5963C36.1618 16.081 36.0002 16.553 35.7887 16.9985C36.0198 16.8702 36.2617 16.7508 36.529 16.6666C36.7111 16.6098 36.9128 16.6636 37.0401 16.8086C37.1684 16.9515 37.2007 17.1562 37.1223 17.3324C36.7111 18.2607 36.154 19.1096 35.4646 19.8538C35.2796 20.0535 35.0612 20.1563 34.9026 20.2307C34.8399 20.2591 34.7449 20.3042 34.7224 20.3277C34.7097 20.4099 34.7116 20.5588 34.7136 20.7037C34.7156 20.8985 34.7146 21.0973 34.6881 21.2696C34.5736 22.0001 34.3885 22.7668 34.1398 23.5472C33.6473 25.1031 32.955 26.5483 32.4067 27.6352C31.8251 28.7847 31.1181 30.0978 30.0675 31.1269C29.3938 31.7898 28.5928 32.3156 27.8291 32.7856C26.4161 33.6561 24.7124 34.6 22.7942 35.0034C22.0226 35.166 21.2354 35.2374 20.4383 35.2374ZM13.8564 33.0098C16.6578 33.895 19.7275 34.647 22.5945 34.0458C24.3658 33.6727 25.9755 32.7788 27.317 31.9523C28.1434 31.4432 28.8102 30.9908 29.3811 30.4288C30.326 29.5025 30.9869 28.2726 31.5323 27.1926C32.063 26.14 32.7337 24.7398 33.2057 23.2505C33.4387 22.5171 33.612 21.7994 33.7188 21.1159C33.7393 20.9935 33.7344 20.8506 33.7335 20.7135C33.7315 20.5196 33.7286 20.3189 33.7658 20.1338C33.8656 19.6335 34.2534 19.4523 34.4845 19.3426C34.5941 19.2917 34.6891 19.2477 34.744 19.1879C35.0034 18.9089 35.2414 18.6132 35.4578 18.3028C35.1758 18.4428 34.8742 18.5544 34.5354 18.5946C34.3229 18.6141 34.1398 18.5143 34.0458 18.3351C33.9508 18.1559 33.9773 17.9385 34.1094 17.7848C34.3905 17.4636 34.6313 17.1092 34.8262 16.7302C34.5325 16.833 34.3092 16.882 34.3033 16.8839L34.178 16.9133C33.8412 16.9946 33.333 17.1219 32.9266 16.7713C32.9266 16.7713 32.9256 16.7713 32.9256 16.7704C32.8512 16.7067 32.7856 16.6284 32.7318 16.5403C32.6162 16.3552 32.5673 16.1554 32.5281 15.9968C32.5144 15.942 32.5017 15.8891 32.485 15.8362C32.3156 15.3046 31.7565 14.9883 31.2895 14.8698C30.6853 14.7171 30.0126 14.7778 29.3634 14.8394C28.8503 14.8864 28.3206 14.9344 27.8614 15.1175C27.4521 15.282 27.0516 15.5709 26.6012 16.0252C25.5339 17.1043 24.8583 18.4281 24.6987 19.7529C24.6722 19.9762 24.6096 20.4961 24.1455 20.7007C23.9408 20.7908 23.7401 20.7771 23.6314 20.7654C21.0532 20.5754 18.6327 19.4102 16.4962 18.3821C15.8343 18.0648 15.0833 17.7045 14.4145 17.212C14.3303 17.1503 14.1893 17.0063 14.0248 16.833C13.9367 16.74 13.7829 16.5775 13.638 16.4414C13.3766 17.9405 13.6429 19.5267 14.3881 20.8554C14.5379 21.1228 14.7464 21.4478 15.0304 21.5937C15.2448 21.7024 15.3476 21.9521 15.2732 22.1812C15.1988 22.4104 14.9746 22.5475 14.7308 22.5142L13.3139 22.289C13.3051 22.4564 13.3149 22.618 13.3638 22.756C13.4246 22.9264 13.5548 23.0987 13.6801 23.2642L14.9863 24.9915C15.2683 25.3645 15.5591 25.7493 15.9165 26.0137C16.2563 26.2624 16.6372 26.3682 16.9496 26.2996C17.2041 26.2399 17.4666 26.3975 17.5341 26.6531C17.5997 26.9106 17.4509 27.173 17.1953 27.2465C16.7283 27.3816 16.2377 27.4511 15.7491 27.4541C15.9939 28.0562 16.4149 28.583 16.9554 28.9512C17.6761 29.4408 18.5799 29.6278 19.4366 29.4633C19.6305 29.429 19.8254 29.5083 19.935 29.6719C20.0447 29.8354 20.0457 30.0479 19.938 30.2124C19.4983 30.886 18.7923 31.2748 18.0952 31.5949C17.1503 32.0297 16.1623 32.3959 15.1606 32.6818C14.7298 32.8052 14.295 32.9139 13.8564 33.0098ZM33.565 16.0301L33.2468 16.4022L33.565 16.0301Z" fill="#010101"/>
</svg>
