<svg width="47" height="47" viewBox="0 0 47 47" fill="none" xmlns="http://www.w3.org/2000/svg">
<path d="M17.9893 43.8218C15.276 43.8218 13.1326 43.8658 11.3917 43.0639C10.1941 42.5136 9.2414 41.8762 8.25832 41.1379C7.48282 40.5533 6.07869 39.3999 5.29536 38.124C4.82242 37.3524 4.67359 36.5368 4.46111 35.823C2.99334 30.8831 3.62196 25.5995 3.20582 20.735C3.01978 18.5642 3.3664 16.3601 3.58573 14.2079C3.6298 13.7633 3.68267 13.309 3.75905 12.8595C3.99796 11.474 4.45328 10.2207 5.11225 9.13284C5.5519 8.40923 6.10317 7.7248 6.7504 7.09911C7.71684 6.16792 8.83896 5.41592 10.0874 4.86171C12.1985 3.92465 14.3008 3.69259 16.4471 3.52025L20.2002 3.2265C22.5189 3.03948 24.9502 2.84267 27.4098 2.93178C29.5219 3.00717 31.5781 3.15698 33.4846 3.30778C34.3237 3.37338 35.3705 3.45563 36.4896 3.83359C38.2482 4.42892 39.8433 5.66953 40.9801 7.32823C41.8124 8.5424 42.6888 9.7409 43.0951 11.4515C43.5964 13.5587 43.3938 15.8078 43.4554 17.5958C43.4731 18.1324 43.4926 18.666 43.5181 19.1967C43.5808 20.4442 43.6366 21.6897 43.6738 22.9352C43.7629 25.9069 43.7296 28.3833 43.57 30.7284C43.3781 33.5797 43.4819 37.2565 41.1191 39.7729C37.8683 43.2284 32.5759 44.0724 29.3163 44.1145L28.9755 44.1165C28.9745 44.1165 28.3244 44.1116 28.0042 44.1057L27.1631 44.0959C25.849 44.0999 24.5301 43.7229 23.1671 43.8463C22.0009 43.953 20.965 43.7229 19.9173 43.7709C19.3053 43.8002 18.6551 43.8218 17.9893 43.8218ZM26.132 6.37159C24.2266 6.37159 22.3045 6.52728 20.445 6.67807L16.6889 6.97182C14.8334 7.12065 13.1972 7.3723 11.5493 8.10373C10.6455 8.50421 9.92486 8.96442 9.23259 9.63123C8.78511 10.063 8.42086 10.5428 8.12417 11.0305C7.67473 11.7717 7.34867 12.3425 7.18025 13.3266C7.11661 13.6987 7.0745 14.0766 7.03632 14.4517C6.82678 16.5158 6.7034 18.618 6.67305 20.7027C6.60646 25.3234 6.73082 30.2241 8.07423 34.7469C8.22013 35.2345 8.45121 35.5968 8.743 36.0746C9.20811 36.8315 9.91507 37.3642 10.5388 37.8342C11.4112 38.4892 12.2053 39.064 13.1169 39.4811C14.4212 40.0823 15.8576 40.1519 18.0882 40.1519C18.7021 40.1519 19.3023 40.1323 19.8663 40.1058C20.8925 40.0588 21.9157 39.9658 22.9399 39.8728C24.4038 39.7416 25.7599 39.6192 27.2179 39.6143C27.4715 39.6143 27.7202 39.6182 27.9689 39.6221L28.1119 39.6241C28.4213 39.629 28.7239 39.6349 29.0255 39.6349L29.3456 39.6329C32.008 39.5996 35.5105 39.4234 37.9192 36.8628C39.5868 35.0876 39.7963 32.813 39.95 30.5306C40.1018 28.2912 40.1341 25.9148 40.0489 23.0497C40.0117 21.8258 39.9569 20.6028 39.8962 19.3779C39.8678 18.8276 39.8492 18.2763 39.8315 17.7221C39.7748 16.0879 39.7806 14.3214 39.3537 12.5286C39.0394 11.2097 38.4871 10.3362 37.881 9.454C37.1359 8.36713 36.5151 7.574 35.4135 7.20094C34.6753 6.95125 33.9291 6.87782 33.1977 6.82005C31.3265 6.67219 29.3359 6.46265 27.2816 6.38921C26.8968 6.37746 26.5139 6.37159 26.132 6.37159Z" fill="#D6E5E5"/>
<path d="M17.9822 40.5512C16.1404 40.5512 14.3328 40.3681 12.8288 39.6758C11.9143 39.2548 11.1251 38.6829 10.2605 38.0328C9.6387 37.5637 8.93468 37.033 8.47545 36.2859C8.18268 35.8081 8.01133 35.2745 7.87424 34.8113C6.53278 30.2964 6.40941 25.4005 6.47599 20.7828C6.50635 18.7001 6.62874 16.6008 6.83828 14.5396C6.87647 14.1617 6.9176 13.7847 6.98124 13.4106C7.15064 12.4325 7.46201 11.5639 7.90753 10.8296C8.2003 10.3459 8.57533 9.88271 9.0228 9.45188C9.7092 8.78898 10.5131 8.25044 11.413 7.85094C13.0491 7.1244 14.8508 6.93052 16.7063 6.78071L20.4575 6.48696C22.69 6.30581 25.0018 6.11781 27.2911 6.20006C29.3346 6.2735 31.3507 6.42038 33.2268 6.56823C33.9543 6.62502 34.7073 6.68377 35.4417 6.93248C36.5325 7.30163 37.542 8.09769 38.2803 9.17673C38.8815 10.0541 39.3261 11.1184 39.6394 12.4315C40.0673 14.2292 40.13 16.0769 40.1858 17.7072L40.1907 17.8619C40.2083 18.3623 40.2249 18.8626 40.2504 19.362C40.3131 20.585 40.3679 21.808 40.4041 23.0319C40.4883 25.9117 40.458 28.2861 40.3062 30.5059C40.1525 32.7805 39.7716 35.344 38.1129 37.1094C35.7188 39.6572 31.8991 39.996 29.2357 40.0303C28.8392 40.0342 28.4397 40.0283 28.0421 40.0215C27.7122 40.0166 27.393 40.0107 27.0493 40.0117C25.6412 40.0166 24.2077 40.1458 22.8202 40.2721C21.8215 40.3622 20.7904 40.4562 19.7672 40.5022C19.1748 40.5326 18.5775 40.5512 17.9822 40.5512ZM26.1523 7.16063C24.2753 7.16063 22.3806 7.31435 20.5388 7.46417L16.7866 7.75694C14.9507 7.90479 13.3086 8.08104 11.8125 8.74688C11.0174 9.09938 10.3085 9.57427 9.7043 10.1569C9.31753 10.5299 8.99539 10.9265 8.74668 11.3368C8.36382 11.9674 8.09553 12.7203 7.94866 13.5761C7.88795 13.9276 7.84878 14.2831 7.81255 14.6395C7.60595 16.6713 7.48649 18.7422 7.45614 20.7975C7.39053 25.3379 7.50901 30.1436 8.81424 34.5322C8.93958 34.9543 9.08058 35.3978 9.31166 35.7748C9.67297 36.3643 10.2712 36.8157 10.8509 37.2514C11.6695 37.8663 12.4137 38.4078 13.2391 38.7867C15.0388 39.6151 17.4192 39.6288 19.7231 39.527C20.7238 39.48 21.7451 39.387 22.7331 39.2988C24.1411 39.1715 25.5972 39.0394 27.0463 39.0345C27.3871 39.0335 27.721 39.0394 28.0588 39.0442C28.4475 39.0511 28.8362 39.058 29.223 39.0531C31.9187 39.0188 35.2841 38.6908 37.4 36.4397C38.8482 34.9004 39.188 32.5436 39.33 30.4403C39.4788 28.2548 39.5101 25.9097 39.4259 23.0623C39.3897 21.8462 39.3349 20.6291 39.2742 19.4129C39.2487 18.9077 39.2311 18.4015 39.2135 17.8962L39.2076 17.7415C39.2076 17.7415 39.2076 17.7415 39.2076 17.7405C39.1537 16.1572 39.093 14.3614 38.6886 12.6596C38.4037 11.465 38.0071 10.5084 37.4754 9.7329C36.8546 8.82717 36.0223 8.16231 35.1293 7.86171C34.5095 7.65217 33.8192 7.59733 33.1514 7.54544C31.2871 7.39954 29.2827 7.25365 27.2578 7.18119C26.8906 7.1665 26.5215 7.16063 26.1523 7.16063Z" fill="#010101"/>
<path d="M25.6168 44.596C24.6405 44.596 23.6653 44.5735 22.693 44.5255C21.8098 44.4834 20.9187 44.3884 20.059 44.2964C19.1905 44.2034 18.2916 44.1074 17.4163 44.0692L16.442 44.0301C14.9928 43.9762 13.4937 43.9214 12.0171 43.6786C11.083 43.5258 10.098 43.3133 9.23336 42.7934C8.60767 42.4164 8.10536 41.918 7.61871 41.4363L5.77298 39.6072C5.31963 39.1587 4.85257 38.6946 4.50105 38.1149C4.08882 37.4305 3.89298 36.6667 3.7559 36.0107C3.27023 33.693 3.24282 31.3244 3.2859 29.1095C3.31234 27.7426 3.19386 26.3542 3.0793 25.0098C3.01173 24.2147 2.94319 23.4186 2.90207 22.6177C2.80121 20.6192 2.74148 18.5894 2.72386 16.587C2.7033 14.1674 2.77575 11.6226 3.88319 9.42632C4.91328 7.37986 6.86182 5.67024 9.37044 4.61078C11.7253 3.61595 14.2653 3.28107 16.44 3.08426C17.1852 3.01768 17.9293 2.94424 18.6725 2.87178C20.2206 2.72099 21.8225 2.56432 23.4048 2.46053C25.0126 2.35674 26.6782 2.48697 28.2889 2.61426C28.9616 2.66713 29.6294 2.72001 30.2884 2.75624C33.031 2.90311 36.1389 3.07055 38.7807 4.50503C41.4352 5.94538 43.3485 8.57836 43.8988 11.5482C44.1642 12.9827 44.1994 14.4338 44.2004 15.5383C44.2014 16.1101 44.1916 16.6819 44.1818 17.2508C44.172 17.808 44.1632 18.3632 44.1632 18.9105C44.1632 20.1697 44.1965 21.4446 44.2298 22.7244C44.3022 25.4749 44.3766 28.3174 44.1123 31.062C43.8763 33.5011 43.3671 35.9069 42.6004 38.2128C42.4173 38.7612 42.2088 39.3369 41.8386 39.8383C41.444 40.3748 40.9035 40.7675 40.4276 41.1151C39.2086 41.9993 37.9494 42.9148 36.4777 43.4426C35.4613 43.8088 34.3774 43.9694 33.4423 44.0908C30.8534 44.4276 28.2321 44.596 25.6168 44.596ZM24.6425 3.40347C24.2469 3.40347 23.8543 3.41424 23.4685 3.4397C21.9008 3.54153 20.3077 3.6982 18.7665 3.84801C18.0204 3.92047 17.2743 3.99293 16.5272 4.06147C14.4278 4.25045 11.9819 4.57161 9.75036 5.51455C7.45617 6.48295 5.68388 8.02807 4.75661 9.86695C3.74807 11.8693 3.68246 14.1841 3.70303 16.5791C3.72065 18.5668 3.7794 20.582 3.88025 22.5667C3.92138 23.3569 3.98796 24.1412 4.05553 24.9255C4.17205 26.2934 4.29248 27.7093 4.26605 29.1272C4.22394 31.2833 4.2494 33.5863 4.71548 35.808C4.83592 36.3847 5.00434 37.0496 5.34117 37.6077C5.62905 38.0826 6.05303 38.5037 6.4633 38.91L8.30805 40.7371C8.75455 41.1787 9.21573 41.635 9.73959 41.9503C10.4622 42.3851 11.3386 42.5721 12.1767 42.7092C13.5916 42.9412 15.0594 42.9961 16.4792 43.0489L17.4603 43.0871C18.367 43.1273 19.2806 43.2262 20.1658 43.3202C21.0118 43.4112 21.8871 43.5043 22.7419 43.5454C26.266 43.7148 29.8213 43.5718 33.3179 43.1175C34.2021 43.0029 35.2234 42.8521 36.1477 42.5192C37.4882 42.0394 38.6916 41.166 39.8539 40.322C40.2925 40.0028 40.7469 39.6718 41.0533 39.2566C41.3383 38.8689 41.5165 38.3754 41.6741 37.9015C42.4183 35.666 42.9118 33.3327 43.1399 30.967C43.3994 28.2821 43.325 25.47 43.2545 22.7489C43.2202 21.4613 43.1869 20.1776 43.1869 18.9095C43.1869 18.3573 43.1958 17.7962 43.2055 17.2332C43.2153 16.6702 43.2242 16.1042 43.2242 15.5373C43.2232 14.4749 43.1909 13.0806 42.9402 11.7244C42.4506 9.08263 40.6783 6.64451 38.3175 5.36376C35.8686 4.03601 32.8783 3.87445 30.2394 3.73149C29.5726 3.69624 28.896 3.64238 28.2165 3.58853C27.0307 3.49845 25.8204 3.40347 24.6425 3.40347Z" fill="#010101"/>
<path d="M35.098 11.1291C34.3548 10.5093 33.1994 10.4055 32.3035 10.9705C31.6269 11.3974 31.4702 12.3962 31.8423 13.1051C32.4709 14.3007 34.6613 15.1026 35.5396 13.768C35.8324 13.3225 35.9039 12.7506 35.7805 12.2327C35.6708 11.7734 35.4241 11.4013 35.098 11.1291Z" fill="#D6E5E5"/>
<path d="M34.1857 14.95C34.1416 14.95 34.0975 14.949 34.0535 14.9461C32.9852 14.8942 31.8729 14.2156 31.4097 13.3324C30.8918 12.3493 31.1757 11.1048 32.0423 10.5565C33.091 9.8936 34.4765 9.97487 35.4106 10.7533C35.8346 11.1068 36.1264 11.5797 36.2556 12.1192C36.4162 12.7949 36.3046 13.494 35.9482 14.0374C35.5594 14.6279 34.9377 14.95 34.1857 14.95ZM33.5982 11.0911C33.2388 11.0911 32.8765 11.1881 32.5651 11.3839C32.1363 11.6551 32.0002 12.3523 32.2763 12.8752C32.5798 13.4529 33.3818 13.9327 34.1015 13.9679C34.5489 13.9806 34.9103 13.8318 35.1306 13.4989C35.3372 13.1856 35.4018 12.7537 35.3049 12.3454C35.2255 12.0125 35.0444 11.7217 34.7849 11.5043C34.4559 11.2311 34.029 11.0911 33.5982 11.0911Z" fill="#010101"/>
<path d="M23.8957 33.1264C22.2252 33.1264 20.4637 33.333 19.0429 32.5633C18.2136 32.1129 17.5918 31.686 17.1512 31.2885C16.9769 31.1328 16.4139 30.6324 16.2836 30.5502C13.9219 29.0687 13.3089 25.5173 13.3961 23.2769C13.446 21.9041 13.8984 20.7938 14.2294 19.984C14.6778 18.8746 15.2937 17.35 16.5617 16.0556C17.9619 14.6299 19.8713 13.7702 22.0872 13.5704C22.9537 13.4921 23.8555 13.5186 24.7446 13.6468C26.699 13.9288 28.4919 14.6456 29.9274 15.7178C31.7202 17.0563 32.9559 18.9304 33.4054 20.9935C34.2083 24.6908 32.7454 28.8592 29.8471 31.1298C28.205 32.4184 26.092 33.1264 23.8957 33.1264ZM23.3219 17.1522C23.0879 17.1522 22.6561 17.2952 22.424 17.3158C20.9787 17.446 20.261 17.4548 19.4052 18.3272C18.5847 19.1644 18.1715 20.2601 17.7847 21.2187C17.5174 21.8748 16.9837 22.6914 16.9544 23.4982C16.9025 24.8328 17.6222 26.2213 18.852 26.9938C19.1614 27.1867 19.2476 27.6685 19.5404 27.9309C19.9085 28.2628 20.4715 28.3754 20.9621 28.6428C23.1496 29.8276 25.6249 29.6631 27.5294 28.1718C29.428 26.6834 30.2642 24.2512 29.7315 21.7974C29.4476 20.4932 28.9384 19.3377 27.7673 18.4633C26.7607 17.7113 25.6298 17.5772 24.2061 17.3706C23.8027 17.3118 23.7185 17.1522 23.3219 17.1522Z" fill="#D6E5E5"/>
<path d="M23.8917 29.8578C22.7999 29.8578 21.7003 29.5993 20.728 29.0725C20.2433 28.8091 19.8565 28.4615 19.4834 28.1256C19.1868 27.8583 18.9067 27.6057 18.5914 27.4079C17.3763 26.6461 16.6135 24.7221 16.6634 23.4031C16.6938 22.6071 16.9934 21.8688 17.2568 21.2176C17.6446 20.26 18.0842 19.1751 18.8959 18.3457C19.7429 17.4821 20.9483 16.9573 22.3808 16.828C22.9947 16.7732 23.6322 16.7918 24.2765 16.8848C25.6914 17.0885 26.9692 17.5918 27.9699 18.3399C29.1322 19.2054 29.9272 20.3961 30.2092 21.6915C30.739 24.1277 29.7167 27.0789 27.8308 28.5565C26.7322 29.4172 25.3183 29.8578 23.8917 29.8578ZM22.4679 17.8042C21.6327 17.8796 20.4567 18.1538 19.5951 19.0331C18.9185 19.7224 18.5346 20.6693 18.1645 21.5848C17.9187 22.1909 17.6651 22.8166 17.6416 23.4413C17.6034 24.442 18.236 26.0322 19.1114 26.5795C19.4981 26.8234 19.8232 27.1161 20.1375 27.3991C20.4842 27.7105 20.8112 28.0052 21.194 28.2128C23.075 29.2311 25.6111 29.05 27.2257 27.7859C28.8364 26.5247 29.7069 23.9936 29.2516 21.9001C29.0225 20.8514 28.341 19.8399 27.3834 19.1242C26.5119 18.474 25.3888 18.0344 24.1355 17.8542C23.5675 17.7729 23.0065 17.7563 22.4679 17.8042Z" fill="#010101"/>
<path d="M23.3648 33.8949C21.6953 33.8949 20.0806 33.5669 18.6197 32.9158C15.8634 31.6859 13.8375 29.4338 13.203 26.8919C12.7173 24.9444 13.0473 22.9684 13.388 21.4644C13.6642 20.2414 14.1244 18.4623 14.9155 17.1286C15.597 15.9752 16.5204 14.9588 17.5857 14.1892C18.277 13.6908 18.9889 13.3187 19.6978 13.0847C19.7007 13.0837 19.7888 13.0553 19.7967 13.0524C21.8333 12.4159 24.0776 12.8115 25.8793 13.1307C28.2626 13.5527 30.7467 15.4043 32.1528 17.0533C32.5347 17.5017 32.8039 17.8924 32.9998 18.286C33.4208 19.1261 33.5442 20.0544 33.6137 20.9308C33.8125 23.4306 33.598 25.5671 32.9577 27.4638C31.9501 30.4512 30.029 32.4595 27.4019 33.2712C26.0555 33.6873 24.6935 33.8939 23.3648 33.8949ZM19.9426 13.5204L20.0101 14.0129C19.3893 14.2186 18.7676 14.5446 18.1576 14.9833C17.2009 15.6746 16.3716 16.5891 15.7576 17.628C15.0379 18.8422 14.6051 20.5224 14.3427 21.6808C14.0255 23.079 13.717 24.9081 14.1537 26.655C14.7158 28.908 16.5351 30.9143 19.0192 32.0208C21.4241 33.0949 24.2999 33.2046 27.114 32.3351C30.0368 31.4313 31.4008 29.0157 32.0304 27.1494C32.6267 25.3811 32.8264 23.3728 32.6384 21.0091C32.5758 20.2306 32.47 19.415 32.1244 18.7237C31.9648 18.4035 31.7366 18.0745 31.4076 17.6877C30.1582 16.2219 27.8405 14.4722 25.7099 14.0942C23.9229 13.7789 21.897 13.4205 20.0904 13.9875L19.9426 13.5204ZM19.9426 13.5204H19.9524H19.9426Z" fill="#010101"/>
</svg>
