<svg width="47" height="47" viewBox="0 0 47 47" fill="none" xmlns="http://www.w3.org/2000/svg">
<path d="M31.7986 21.2417C31.5049 20.5808 31.202 19.9107 31.202 19.1671C31.202 18.5429 31.4865 18.0288 31.5508 17.4321C31.5783 17.1935 31.5691 17.0374 31.3121 16.9732C31.0551 16.9181 30.8164 16.9273 30.5686 17.0099C30.082 17.1659 29.5221 17.478 29.1916 17.9003C29.1732 18.2216 28.8152 18.5245 28.4848 18.2675C27.3189 17.3679 25.584 17.3403 24.1795 17.3954C22.8576 17.4505 21.4439 17.6066 20.1863 18.038C20.1129 18.0655 20.0303 18.0747 19.966 18.0655C19.8559 18.0655 19.7365 18.0196 19.6355 17.9278C19.2867 17.5882 18.9287 17.2577 18.5432 16.964C18.1393 16.6611 17.616 16.248 17.0928 16.2204C16.0646 16.1653 16.7164 18.038 16.9551 18.8734C17.1479 19.0019 17.2488 19.2589 17.0928 19.5068C16.6521 20.1677 15.8535 20.6818 15.5781 21.4528C15.3119 22.2056 15.3395 22.9859 15.523 23.7569C15.6791 24.4546 15.9545 25.0788 16.3951 25.648C16.7348 26.0886 17.3039 26.8046 17.9465 26.6853C18.0842 26.6577 18.2035 26.6945 18.2953 26.7587C19.4703 26.9331 20.4342 27.8603 20.7096 29.0169C21.0217 30.3571 20.2598 31.523 18.9838 31.9636C17.6436 32.4318 16.4043 32.0003 15.7709 30.7335C15.5598 30.3204 15.4404 29.8339 15.1742 29.4484C14.9998 29.2005 14.7795 29.0995 14.5225 29.0812C14.7244 30.0726 14.6143 31.1833 15.3854 31.9361C16.2574 32.7806 17.4508 32.5786 18.5523 32.6704C19.3785 32.7439 19.9844 33.1937 19.8191 34.0933C19.7182 34.6624 19.4887 35.2224 19.2959 35.7732C19.1031 36.3331 19.0664 36.8105 19.0572 37.3796C19.1949 37.398 19.3418 37.4255 19.4795 37.4439C22.1783 37.7835 24.9139 37.3429 27.4107 36.2964C27.3557 36.1587 27.3557 35.9935 27.475 35.8374C27.6402 35.6171 27.6311 35.2407 27.6219 34.9837C27.6035 34.5431 27.5393 34.0933 27.4291 33.6618C27.2547 32.9458 27.0527 32.1564 26.6396 31.5413C26.1531 30.807 25.4555 30.1093 25.3361 29.2005C25.2352 28.4294 25.6482 27.2269 26.5387 27.1443C26.6488 27.1351 26.7498 27.1626 26.8232 27.2085C27.6861 27.0984 28.5674 26.9515 29.3844 26.6486C30.1646 26.3548 30.798 25.9509 31.3764 25.3542C31.8721 24.8402 32.2852 24.1976 32.3311 23.4724C32.377 22.6646 32.1199 21.9486 31.7986 21.2417Z" fill="#283D5B"/>
<path d="M37.2602 20.443C36.2504 15.9449 32.5786 12.3281 28.2274 10.9787C26.1711 10.3453 23.9772 10.125 21.8567 10.5106C19.9749 10.8502 18.2674 11.6948 16.6793 12.7412C14.9811 13.8703 13.3655 15.2197 12.1538 16.8813C11.3 18.0563 10.6208 19.4791 10.6666 20.9387C10.6666 20.9479 10.6575 20.9662 10.6575 20.9754C10.6299 21.4895 10.5749 21.9944 10.529 22.5084C10.4831 22.5268 10.4463 22.536 10.4004 22.5451C10.3454 23.151 10.2536 23.766 10.2352 24.3811C10.2168 25.0237 10.2168 25.6662 10.2536 26.318C10.3178 27.5848 10.4831 28.8516 10.8227 30.0725C11.3368 31.8901 12.1997 33.6434 13.6041 34.9377C14.8801 36.1127 16.459 36.8287 18.1206 37.2051V37.1408C18.1206 37.1225 18.1206 37.0949 18.1206 37.0766C18.1297 36.6268 18.1665 36.2045 18.3225 35.7455C18.5061 35.1764 18.7631 34.5981 18.8733 34.0106C18.9284 33.6985 18.9284 33.6526 18.6163 33.6067C18.1481 33.5424 17.6616 33.5791 17.1842 33.5516C16.6243 33.5149 16.0459 33.4323 15.5411 33.1844C15.027 32.9274 14.6874 32.5785 14.3385 32.1287C13.6041 31.174 13.8795 29.9256 13.4573 28.8608C13.3747 28.6496 13.5032 28.3283 13.7418 28.2733C14.669 28.0621 15.5411 28.2365 16.0092 29.1362C16.3672 29.8063 16.56 30.8619 17.3495 31.174C18.3592 31.5688 19.9014 30.7701 19.828 29.5951C19.7637 28.5578 18.9651 27.7408 17.937 27.6399C17.8911 27.6399 17.8543 27.6307 17.8176 27.6123C17.0465 27.6307 16.3672 27.0891 15.8807 26.5108C15.3299 25.859 14.9077 25.1246 14.6874 24.2985C14.4303 23.3254 14.3477 22.3432 14.6231 21.3701C14.8709 20.4981 15.5686 19.9565 16.101 19.2864C15.9725 18.451 15.5686 17.6615 15.5961 16.7987C15.6145 16.1377 16.0827 15.3758 16.7987 15.3115C18.0655 15.2014 19.2221 16.2479 20.1034 17.1108C21.4711 16.6885 22.9399 16.5141 24.3627 16.4774C25.7305 16.4406 27.3278 16.5141 28.5579 17.2117C28.9985 16.7069 29.6686 16.3397 30.2836 16.1377C30.9262 15.9266 31.8166 15.9449 32.2573 16.5324C32.6795 17.0832 32.4133 17.8451 32.2297 18.4326C31.9635 19.2955 32.2665 20.0574 32.6245 20.8377C33.0008 21.6731 33.3313 22.591 33.2395 23.5274C33.1477 24.3811 32.7805 25.1246 32.2206 25.7672C31.5872 26.4924 30.8344 27.0707 29.9256 27.4104C28.8975 27.7959 27.8327 28.0071 26.7495 28.1356C26.6668 28.1448 26.5934 28.1356 26.5292 28.1172C26.4374 28.2274 26.3088 28.4752 26.2813 28.567C26.217 28.7506 26.2079 28.9434 26.2446 29.1362C26.3272 29.5584 26.6026 29.944 26.8504 30.2836C27.2911 30.8895 27.6766 31.4678 27.9336 32.1838C28.209 32.9549 28.4293 33.7811 28.5028 34.5981C28.5395 35.002 28.5487 35.4242 28.4477 35.819C29.8889 35.103 31.22 34.1758 32.395 33.0834C35.819 29.8981 38.3342 25.2256 37.2602 20.443Z" fill="#D6E5E5"/>
<path d="M43.8056 15.7982C41.8503 11.8142 38.1509 8.68394 34.2404 6.71031C30.3206 4.71832 25.7767 3.67183 21.3796 4.36949C14.1368 5.50777 7.12355 10.8228 5.04894 17.9462C5.04894 18.0289 5.03059 18.1023 4.98469 18.1849C4.94797 18.3134 4.91125 18.4511 4.88371 18.5796C4.83781 18.6714 4.79191 18.7632 4.75519 18.8642C4.74602 18.9468 4.72766 19.0386 4.71848 19.1121C4.63586 19.4884 4.53488 19.8648 4.47062 20.2412C4.34211 20.948 4.36965 21.6824 4.1218 22.3525C4.10344 22.5453 4.0759 22.738 4.04836 22.9308C4.04836 22.9584 4.04836 22.9767 4.04836 22.9951C4.00246 23.399 3.96574 23.8029 3.92902 24.2068C3.85559 25.0513 3.81887 25.8959 3.82805 26.7404C3.85559 28.4019 4.04836 30.0634 4.46144 31.6699C5.26008 34.7267 6.80227 37.6183 9.23488 39.6837C10.9056 41.1066 12.8609 42.0429 14.963 42.6488C17.2579 43.3189 19.6446 43.6953 22.0405 43.7044C26.7681 43.7136 31.514 42.4285 35.4062 39.6929C42.603 34.6257 48.0282 24.3812 43.8056 15.7982ZM22.7933 38.3986C18.5523 38.7841 13.8982 37.5541 11.4839 33.7996C10.4374 32.1748 9.83156 30.3021 9.54699 28.4019C9.40012 27.4105 9.3175 26.4099 9.3175 25.4093C9.3175 24.8861 9.32668 24.3628 9.35422 23.8396C9.39094 23.2613 9.50109 22.6921 9.51945 22.123C9.52863 21.9027 9.66633 21.7466 9.84074 21.6824C9.51945 19.7363 10.3089 17.8361 11.4747 16.2664C12.8517 14.4029 14.706 12.8699 16.6704 11.6582C18.2952 10.6576 20.021 9.86812 21.9212 9.56519C24.0325 9.22554 26.2448 9.39996 28.2919 10.0334C32.5696 11.3644 36.3792 14.5865 37.8021 18.9285C40.8864 28.3285 31.7802 37.5816 22.7933 38.3986Z" fill="#D6E5E5"/>
<path d="M20.9297 3.51597C20.1402 3.65366 19.36 3.83726 18.5889 4.05757H29.99C27.0434 3.24058 23.9406 2.99273 20.9297 3.51597Z" fill="black"/>
<path d="M43.7777 13.8799C41.4644 10.1713 37.7283 7.30723 33.7994 5.47129C32.5693 4.90215 31.2933 4.4248 29.9806 4.05762H18.5886C11.9701 5.99453 6.02164 11.1443 4.1398 17.7996C3.83687 18.3045 3.79097 19.0022 3.66246 19.5621C3.57066 19.9568 3.5064 20.3607 3.45133 20.7647C3.44215 20.8014 3.44215 20.8473 3.43297 20.884C3.42379 20.9115 3.41461 20.9299 3.41461 20.9574C3.34117 21.343 3.27691 21.7285 3.22183 22.1141C3.22183 22.1232 3.21265 22.1232 3.21265 22.1324C3.16676 22.2426 3.15758 22.3436 3.17593 22.4262C3.08414 23.1697 3.01988 23.9133 2.9648 24.6568C2.89136 25.7033 2.88218 26.759 2.93726 27.8055C3.0566 29.8525 3.45133 31.8904 4.15816 33.8182C5.56265 37.6553 8.33492 40.8406 12.0619 42.5664C14.1824 43.5395 16.5416 44.0994 18.8457 44.4023C21.1865 44.7053 23.5732 44.6869 25.914 44.3473C30.5865 43.668 34.956 41.6209 38.4076 38.3988C41.749 35.2869 44.3744 31.2754 45.5769 26.8508C46.7886 22.4537 46.2103 17.7721 43.7777 13.8799ZM35.3966 39.7023C31.5044 42.4379 26.7586 43.723 22.031 43.7139C19.6443 43.7047 17.2576 43.3283 14.9627 42.6582C12.8605 42.0432 10.9052 41.116 9.23453 39.6932C6.80191 37.6277 5.25972 34.7361 4.46109 31.6793C4.03883 30.0729 3.85523 28.4113 3.82769 26.7498C3.80933 25.9053 3.84605 25.0607 3.92867 24.2162C3.96539 23.8123 4.00211 23.4084 4.048 23.0045C4.048 22.9861 4.048 22.9586 4.048 22.9402C4.07554 22.7475 4.10308 22.5547 4.12144 22.3619C4.36929 21.6918 4.34176 20.9482 4.47027 20.2506C4.54371 19.8742 4.63551 19.4979 4.71812 19.1215C4.73648 19.048 4.74566 18.9654 4.75484 18.8736C4.79156 18.7818 4.83746 18.6809 4.88336 18.5891C4.92008 18.4605 4.94761 18.3229 4.98433 18.1943C5.03023 18.1117 5.05777 18.0291 5.04859 17.9557C7.1232 10.823 14.1365 5.50801 21.3793 4.36973C25.7763 3.67207 30.3111 4.71855 34.24 6.71055C38.1505 8.68418 41.8408 11.8236 43.8052 15.7984C48.0279 24.3814 42.6027 34.626 35.3966 39.7023Z" fill="black"/>
<path d="M37.7927 18.9379C36.3606 14.5959 32.5603 11.3739 28.2825 10.0428C26.2355 9.40941 24.0323 9.235 21.9118 9.57465C20.0116 9.87758 18.2858 10.6578 16.661 11.6676C14.6966 12.8793 12.8515 14.4215 11.4653 16.2758C10.2995 17.8455 9.51006 19.7457 9.83135 21.6918C9.66611 21.7561 9.51924 21.903 9.51006 22.1325C9.4917 22.7016 9.37236 23.2799 9.34482 23.8491C9.31729 24.3723 9.30811 24.8955 9.30811 25.4188C9.31729 26.4194 9.39072 27.42 9.5376 28.4114C9.82217 30.3116 10.428 32.1842 11.4745 33.809C13.8888 37.5543 18.5429 38.7844 22.7839 38.408C31.78 37.5819 40.8862 28.3287 37.7927 18.9379ZM27.4655 35.8286C27.3462 35.9846 27.3462 36.1498 27.4013 36.2875C24.9044 37.334 22.1688 37.7746 19.47 37.435C19.3323 37.4166 19.1854 37.3983 19.0478 37.3707C19.0569 36.8016 19.0937 36.3243 19.2864 35.7643C19.47 35.2135 19.6995 34.6536 19.8097 34.0844C19.9749 33.1848 19.3599 32.735 18.5429 32.6616C17.4321 32.5698 16.2479 32.7625 15.3759 31.9272C14.5956 31.1836 14.7149 30.0637 14.513 29.0723C14.77 29.0815 14.9903 29.1825 15.1647 29.4395C15.431 29.825 15.5595 30.3024 15.7614 30.7246C16.3948 32.0006 17.6341 32.4229 18.9743 31.9547C20.2411 31.5141 21.0122 30.3483 20.7001 29.008C20.4247 27.8514 19.4608 26.9243 18.2858 26.7498C18.194 26.6856 18.0839 26.6489 17.937 26.6764C17.2944 26.7957 16.7345 26.0797 16.3856 25.6391C15.945 25.07 15.6788 24.4457 15.5136 23.7481C15.3392 22.977 15.3024 22.1967 15.5687 21.444C15.844 20.6729 16.6427 20.168 17.0833 19.4979C17.2485 19.25 17.1384 18.993 16.9456 18.8645C16.7069 18.02 16.0552 16.1565 17.0833 16.2116C17.6157 16.2391 18.139 16.6522 18.5337 16.9551C18.9192 17.2489 19.2864 17.5793 19.6261 17.919C19.7271 18.02 19.8372 18.0567 19.9565 18.0567C20.03 18.0659 20.1034 18.0567 20.1769 18.0291C21.4345 17.5977 22.8481 17.4325 24.17 17.3866C25.5745 17.3315 27.3095 17.359 28.4753 18.2586C28.8058 18.5157 29.1638 18.2127 29.1821 17.8914C29.5126 17.4692 30.0634 17.1571 30.5591 17.001C30.8161 16.9184 31.0456 16.9092 31.3026 16.9643C31.5688 17.0194 31.5688 17.1846 31.5413 17.4233C31.4771 18.02 31.1925 18.534 31.1925 19.1582C31.1925 19.8926 31.4862 20.5719 31.7892 21.2329C32.1104 21.9397 32.3675 22.6649 32.3124 23.4452C32.2665 24.1795 31.8534 24.8129 31.3577 25.327C30.7794 25.9237 30.146 26.3368 29.3657 26.6213C28.5487 26.9243 27.6675 27.0803 26.8046 27.1813C26.7312 27.1354 26.6394 27.1078 26.52 27.117C25.6296 27.1996 25.2165 28.4022 25.3175 29.1733C25.4368 30.0821 26.1345 30.7797 26.621 31.5141C27.0341 32.1291 27.236 32.9186 27.4104 33.6346C27.5114 34.0661 27.5757 34.5067 27.6032 34.9565C27.6308 35.2319 27.6399 35.6082 27.4655 35.8286ZM32.4042 33.0746C31.2292 34.167 29.889 35.0942 28.4569 35.8102C28.5579 35.4155 28.5487 34.9932 28.512 34.5893C28.4386 33.7723 28.2183 32.9461 27.9429 32.175C27.6858 31.459 27.3003 30.8899 26.8597 30.2748C26.6118 29.926 26.3364 29.5496 26.2538 29.1274C26.2171 28.9346 26.2263 28.7418 26.2905 28.5582C26.3181 28.4664 26.4466 28.2186 26.5384 28.1084C26.6026 28.1268 26.6761 28.1452 26.7587 28.1268C27.8419 27.9983 28.9067 27.7871 29.9349 27.4016C30.8437 27.062 31.5872 26.4836 32.2298 25.7584C32.7897 25.1159 33.1661 24.3723 33.2487 23.5186C33.3405 22.5823 33.0101 21.6643 32.6337 20.8289C32.2849 20.0395 31.9728 19.2868 32.239 18.4239C32.4226 17.8364 32.6888 17.0745 32.2665 16.5237C31.8259 15.9362 30.9354 15.9178 30.2929 16.1289C29.6778 16.3309 29.0077 16.6981 28.5671 17.203C27.337 16.4961 25.7397 16.4319 24.372 16.4686C22.9491 16.5053 21.4804 16.6705 20.1126 17.102C19.2313 16.2391 18.0747 15.1926 16.8079 15.3028C16.0919 15.367 15.6237 16.1381 15.6054 16.7899C15.5778 17.6436 15.9817 18.4422 16.1103 19.2776C15.5778 19.9477 14.8802 20.4985 14.6323 21.3614C14.3569 22.3344 14.4396 23.3166 14.6966 24.2897C14.9169 25.1159 15.3392 25.8502 15.8899 26.502C16.3765 27.0803 17.0558 27.6219 17.8269 27.6036C17.8636 27.6127 17.9003 27.6219 17.9462 27.6311C18.9743 27.7321 19.7729 28.5399 19.8372 29.5864C19.9106 30.7522 18.3593 31.5508 17.3587 31.1653C16.5692 30.8532 16.3673 29.8067 16.0185 29.1274C15.5503 28.2278 14.6782 28.0534 13.7511 28.2645C13.5124 28.3196 13.3839 28.6317 13.4665 28.852C13.8888 29.9168 13.6042 31.1653 14.3478 32.12C14.6966 32.5698 15.0362 32.9186 15.5503 33.1756C16.0552 33.4235 16.6335 33.5061 17.1935 33.5428C17.6708 33.5703 18.1481 33.5336 18.6255 33.5979C18.9376 33.6438 18.9376 33.6897 18.8825 34.0018C18.7724 34.5893 18.5153 35.1676 18.3317 35.7368C18.1849 36.1957 18.139 36.618 18.1298 37.0678C18.1298 37.0862 18.1298 37.1137 18.1298 37.1321V37.1963C16.4591 36.82 14.8894 36.1039 13.6134 34.9289C12.2089 33.6346 11.3368 31.8813 10.8319 30.0637C10.4923 28.8428 10.3271 27.576 10.2628 26.3092C10.2261 25.6666 10.2261 25.0241 10.2444 24.3723C10.2628 23.7573 10.3546 23.1514 10.4097 22.5364C10.4556 22.5272 10.5015 22.518 10.5382 22.4996C10.5841 21.9856 10.6392 21.4807 10.6667 20.9666C10.6667 20.9575 10.6667 20.9391 10.6759 20.9299C10.63 19.4703 11.3093 18.0567 12.163 16.8725C13.3655 15.211 14.9812 13.8616 16.6886 12.7325C18.2675 11.686 19.9841 10.8414 21.8659 10.5018C23.9956 10.1162 26.1804 10.3366 28.2366 10.97C32.5878 12.3194 36.2597 15.9362 37.2694 20.4342C38.3343 25.226 35.819 29.8985 32.4042 33.0746Z" fill="#010101"/>
</svg>
